<?xml version="1.0" encoding="UTF-8"?>
<svg width="260px" height="117px" viewBox="0 0 260 117" version="1.1" xmlns="http://www.w3.org/2000/svg" xmlns:xlink="http://www.w3.org/1999/xlink">
    <title>Combined Shape</title>
    <g id="Page-1" stroke="none" stroke-width="1" fill="none" fill-rule="evenodd">
        <g id="Content-page" transform="translate(-710.000000, -40.000000)" fill="#14332A">
            <g id="Group-5" transform="translate(276.000000, 40.000000)">
                <path d="M634.859482,103.05868 C636.135912,103.05868 636.911703,103.503669 637.377097,104.364086 C637.979867,105.498927 638.031132,107.338399 638.031132,109.916056 C638.031132,112.615546 637.944622,114.48977 637.377097,115.641387 C636.928124,116.552535 636.170757,117.00032 634.859482,117.00032 C633.551011,117.00032 632.810065,116.552535 632.361092,115.657365 C631.793567,114.522125 631.707057,112.650698 631.707057,109.967585 L631.707506,109.586039 C631.713603,107.202317 631.789282,105.441366 632.377513,104.347709 C632.826086,103.503669 633.567032,103.05868 634.859482,103.05868 Z M622.085411,103.05868 C623.361841,103.05868 624.137631,103.503669 624.602625,104.364086 C625.205795,105.498927 625.257061,107.338399 625.257061,109.916056 C625.257061,112.615546 625.172953,114.48977 624.602625,115.641387 C624.154052,116.552535 623.396685,117.00032 622.085411,117.00032 C620.77694,117.00032 620.035994,116.552535 619.58702,115.657365 C619.019095,114.522125 618.932985,112.650698 618.932985,109.967585 C618.932985,107.389528 618.984251,105.498927 619.603441,104.347709 C620.052014,103.503669 620.79296,103.05868 622.085411,103.05868 Z M520.613879,103.143244 L520.613879,104.861283 L517.269208,104.861283 L517.269208,109.108246 L520.354348,109.108246 L520.354348,110.809907 L517.269208,110.809907 L517.269208,115.143551 L520.646321,115.143551 L520.646321,116.861191 L515.495744,116.861191 L515.495744,103.143244 L520.613879,103.143244 Z M555.976555,103.143244 L557.958285,116.861191 L556.149576,116.861191 L555.751868,113.560527 L553.513409,113.560527 L553.064436,116.861191 L551.271747,116.861191 L553.52943,103.143244 L555.976555,103.143244 Z M612.759542,103.143284 L612.759542,104.861323 L609.398851,104.861323 L609.398851,109.108286 L612.502814,109.108286 L612.502814,110.809947 L609.398851,110.809947 L609.398851,116.861231 L607.624986,116.861231 L607.624986,103.143284 L612.759542,103.143284 Z M589.746677,103.143484 C591.090392,103.143484 591.850163,103.590869 592.279911,104.502416 C592.642374,105.241401 592.728885,107.921717 592.728885,109.70966 L592.728006,110.368481 C592.720495,112.85465 592.65644,114.867067 592.228646,115.658284 C591.866183,116.327364 591.263413,116.86143 589.781922,116.86143 L589.781922,116.86143 L586.818538,116.86143 L586.818538,103.143484 Z M580.284194,103.143244 L580.284194,104.861283 L576.939523,104.861283 L576.939523,109.108246 L580.024662,109.108246 L580.024662,110.809907 L576.939523,110.809907 L576.939523,115.143551 L580.316635,115.143551 L580.316635,116.861191 L575.163255,116.861191 L575.163255,103.143244 L580.284194,103.143244 Z M568.784109,103.143484 L568.784109,104.861123 L566.837223,104.861123 L566.837223,116.861031 L565.012092,116.861031 L565.012092,104.861123 L563.027558,104.861123 L563.027558,103.143484 L568.784109,103.143484 Z M482.896797,103.143364 L482.896797,109.108366 L485.189725,109.108366 L485.189725,103.143364 L486.979611,103.143364 L486.979611,116.861311 L485.189725,116.861311 L485.189725,110.810027 L482.896797,110.810027 L482.896797,116.861311 L481.120529,116.861311 L481.120529,103.143364 L482.896797,103.143364 Z M647.650896,103.143484 C648.994612,103.143484 649.754382,103.590869 650.184131,104.502416 C650.546593,105.241401 650.633104,107.921717 650.633104,109.70966 C650.633104,112.495431 650.597859,114.798266 650.132865,115.658284 C649.770402,116.327364 649.167633,116.86143 647.686141,116.86143 L647.686141,116.86143 L644.722757,116.86143 L644.722757,103.143484 Z M495.774281,103.143444 L495.774281,116.86139 L493.911102,116.86139 L493.911102,103.143444 L495.774281,103.143444 Z M506.23616,103.143164 C507.220217,103.143164 507.925918,103.504667 508.237115,104.173348 C508.477422,104.656285 508.580353,105.688866 508.580353,106.47898 C508.580353,107.285471 508.547912,108.161867 508.288381,108.849322 C508.098939,109.36741 507.650366,109.725717 507.133706,109.796021 C507.752897,109.863528 508.217891,110.208654 508.461401,110.707169 C508.685688,111.171331 508.80464,112.322548 508.80464,113.112663 C508.80464,114.042984 508.718129,115.226957 508.442577,115.725871 C508.11536,116.327444 507.563455,116.861111 506.22014,116.861111 L506.22014,116.861111 L502.686027,116.861111 L502.686027,103.143164 Z M541.065114,103.143244 L543.409307,111.635173 L543.409307,103.143244 L545.083045,103.143244 L545.083045,116.861191 L543.322797,116.861191 L540.946162,108.81425 L540.946162,116.861191 L539.291649,116.861191 L539.291649,103.143244 L541.065114,103.143244 Z M530.456648,103.142325 C531.524411,103.142325 532.232916,103.64124 532.560134,104.552787 C532.749576,105.086853 532.887352,105.860989 532.887352,106.977055 C532.887352,108.077543 532.800841,108.781375 532.611399,109.27989 C532.421957,109.795182 532.008629,110.207815 531.662187,110.312871 L531.662187,110.312871 L533.284659,116.860272 L531.42188,116.860272 L530.026498,110.808989 L528.888245,110.808989 L528.888245,116.860272 L527.147222,116.860272 L527.147222,103.142325 Z M634.878707,104.741567 C634.429733,104.741567 634.137761,104.897753 633.945515,105.240482 C633.600324,105.858433 633.557175,107.052566 633.551782,109.104667 L633.551903,110.681104 C633.559024,112.945179 633.614859,114.168012 633.929495,114.78097 C634.118936,115.193603 634.429733,115.349788 634.878707,115.349788 C635.359721,115.349788 635.670518,115.193603 635.85996,114.78097 C636.170757,114.093115 636.206002,112.683053 636.206002,109.983563 L636.206002,109.983563 L636.206217,108.498253 C636.201683,106.797754 636.159592,105.76834 635.85996,105.224104 C635.670518,104.878979 635.327279,104.741567 634.878707,104.741567 Z M622.104635,104.741567 C621.655662,104.741567 621.363689,104.897753 621.174247,105.240482 C620.77694,105.946711 620.77694,107.405506 620.77694,110.037489 C620.77694,112.717805 620.811784,114.112289 621.155423,114.78097 C621.344865,115.193603 621.655662,115.349788 622.104635,115.349788 C622.585649,115.349788 622.896446,115.193603 623.085888,114.78097 C623.370785,114.150802 623.424142,112.913109 623.431057,110.631908 L623.43193,109.983563 C623.43193,109.874796 623.431986,109.768023 623.432067,109.663218 L623.432145,108.498253 C623.427612,106.797754 623.385521,105.76834 623.085888,105.224104 C622.896446,104.878979 622.553208,104.741567 622.104635,104.741567 Z M647.583209,104.758464 L646.496221,104.758464 L646.496221,115.34831 L647.59923,115.34831 C648.151135,115.34831 648.548442,115.10824 648.667394,114.593348 C648.79893,114.049926 648.826782,113.198026 648.82945,112.042077 L648.829049,111.438785 C648.827572,110.914961 648.823994,110.33848 648.823994,109.70966 C648.823994,108.954697 648.753904,106.204077 648.651373,105.705163 C648.513197,105.05246 648.134714,104.758464 647.583209,104.758464 L647.583209,104.758464 Z M589.67899,104.758464 L588.592002,104.758464 L588.592002,115.34831 L589.695411,115.34831 C590.246915,115.34831 590.644223,115.10824 590.763175,114.593348 C590.894711,114.049926 590.922722,113.198026 590.925508,112.042077 L590.925162,111.438785 C590.923725,110.914961 590.920175,110.33848 590.920175,109.70966 C590.920175,108.954697 590.849685,106.204077 590.747154,105.705163 C590.609378,105.05246 590.230494,104.758464 589.67899,104.758464 L589.67899,104.758464 Z M505.960208,110.707169 L504.42745,110.707169 L504.42745,115.29726 L505.892922,115.29726 C506.409181,115.29726 506.668712,115.10832 506.787664,114.763194 C506.874175,114.507146 506.90942,113.44181 506.90942,112.959273 C506.90942,112.443982 506.83933,111.618716 506.719978,111.241634 C506.582202,110.826205 506.271405,110.707169 505.960208,110.707169 L505.960208,110.707169 Z M554.684104,105.068997 C554.684104,105.068997 554.565152,106.770259 554.510683,107.19927 C554.478642,107.509244 553.737696,111.977503 553.737696,111.977503 L553.737696,111.977503 L555.530385,111.977503 C555.530385,111.977503 554.908391,107.509244 554.873146,107.19927 C554.82188,106.770259 554.684104,105.068997 554.684104,105.068997 Z M530.14545,104.843987 L528.904666,104.843987 L528.904666,109.212782 L528.904666,109.212782 L529.192487,109.212236 C529.561142,109.211005 530.160978,109.207006 530.231961,109.194008 C530.594424,109.158857 530.80269,108.953938 530.886396,108.713868 C531.008152,108.419872 531.078241,107.648532 531.078241,107.182373 C531.078241,106.5808 531.024172,105.807063 530.991731,105.636897 C530.921641,105.170338 530.629669,104.843987 530.14545,104.843987 L530.14545,104.843987 Z M505.652214,104.707414 L504.42745,104.707414 L504.42745,109.175673 L505.873697,109.175673 C506.098384,109.175673 506.409181,109.021885 506.530936,108.644404 C506.685133,108.180641 506.719978,107.611823 506.719978,106.872838 C506.719978,106.255287 506.617447,105.618962 506.546957,105.360117 C506.444426,104.947484 506.065943,104.707414 505.652214,104.707414 L505.652214,104.707414 Z M451.399017,62.9917467 C461.176302,62.9917467 465.742933,65.7587439 467.654574,68.5900526 C468.270961,69.5447406 468.703514,70.5289879 468.887348,71.4217609 L468.887348,71.4217609 L458.861747,71.4513202 C458.80207,71.0818281 458.648274,70.8661245 458.18288,70.4347174 C457.258499,69.6042588 454.943944,68.9595448 451.091024,68.9595448 C445.475053,68.9595448 443.963523,69.3909519 443.963523,70.5585472 C443.963523,71.5427945 444.980421,71.7884569 450.996103,72.219864 C453.773249,72.4060082 458.461636,72.7431448 459.448496,72.8050597 C467.067825,73.3279411 469.90665,75.6663273 469.90665,79.635672 C469.90665,85.0801893 463.982686,87.7876682 452.107522,87.7876682 C441.495171,87.7876682 436.839225,84.95596 434.803025,81.4799373 C434.370473,80.7413524 434.154197,80.0347236 434,79.2042649 L434,79.2042649 L443.993561,79.2042649 C444.11772,79.5737571 444.396475,79.9728087 444.796586,80.3746564 C445.753809,81.2642338 448.560192,81.8494295 453.002665,81.8494295 C459.172543,81.8494295 460.3136,81.2346744 460.3136,80.0966385 C460.3136,78.9885614 459.448496,78.6809841 454.297518,78.3438474 C452.015805,78.1876621 448.838548,78.0366696 447.264938,77.9419997 C436.960981,77.389559 434.246315,74.6197657 434.246315,70.9280394 C434.246315,66.5300838 440.262397,62.9917467 451.399017,62.9917467 Z M489.867979,63.3903189 L489.867979,76.0968556 C489.867979,79.2033861 492.76648,81.1718807 498.228255,81.1718807 C503.470949,81.1718807 506.434333,79.1738267 506.434333,76.0968556 L506.434333,76.0968556 L506.434333,63.3903189 L515.440633,63.3903189 L515.440633,76.83584 C515.440633,84.1893336 508.62433,87.7572301 497.703585,87.7572301 C487.648345,87.7572301 480.73712,84.0950632 480.73712,75.7892783 L480.73712,75.7892783 L480.73712,63.3903189 L489.867979,63.3903189 Z M680.397391,63.3913975 C684.744942,63.3913975 687.646247,64.3137298 689.311573,65.7589436 C690.544748,66.8674202 691.161135,68.3449895 691.161135,70.4349171 C691.161135,72.2200637 690.639269,73.913736 689.774164,74.9894576 C688.849383,76.1274935 687.246136,77.2359701 685.147856,77.4516736 L685.147856,77.4516736 L694.00036,87.4183758 L684.036838,87.4183758 L676.355029,78.5897095 L666.391506,78.5897095 L666.391506,87.4183758 L657.352764,87.4183758 L657.352764,63.3913975 Z M645.937628,63.3916371 L645.937628,69.728528 L625.083399,69.728528 L625.083399,72.4036514 L645.413359,72.4036514 L645.413359,78.403805 L625.083399,78.403805 L625.083399,81.111284 L646.21358,81.111284 L646.21358,87.4186154 L616.168816,87.4186154 L616.168816,63.3916371 L645.937628,63.3916371 Z M594.480081,63.3904388 C598.181607,63.3904388 601.11255,64.0970676 602.932073,65.4831626 C604.751597,66.8664615 605.860212,69.14493 605.860212,72.435208 C605.860212,74.9269834 605.12207,76.8978747 603.856854,78.2811736 C601.945213,80.4657711 598.797994,81.4500184 594.663915,81.4500184 L594.663915,81.4500184 L581.028504,81.4500184 L581.028504,87.4174171 L571.992165,87.4174171 L571.992165,63.3904388 Z M550.30315,63.3904388 C554.004677,63.3904388 556.935619,64.0970676 558.755143,65.4831626 C560.574666,66.8664615 561.686085,69.14493 561.686085,72.435208 C561.686085,74.9269834 560.945139,76.8978747 559.679924,78.2811736 C557.768283,80.4657711 554.621064,81.4500184 550.486985,81.4500184 L550.486985,81.4500184 L536.854377,81.4500184 L536.854377,87.4174171 L527.815235,87.4174171 L527.815235,63.3904388 Z M592.319722,69.4201518 L580.998866,69.4201518 L580.998866,75.6655683 L592.319722,75.6655683 C594.355522,75.6655683 595.650776,75.3284317 596.267163,74.4656175 C596.575556,74.0042516 596.732156,73.3894965 596.732156,72.5590378 C596.732156,71.6990198 596.545518,70.9895948 596.175045,70.5581877 C595.558658,69.789644 594.293442,69.4201518 592.319722,69.4201518 L592.319722,69.4201518 Z M548.142792,69.4201518 L536.821936,69.4201518 L536.821936,75.6655683 L548.142792,75.6655683 C550.178591,75.6655683 551.473845,75.3284317 552.090232,74.4656175 C552.401029,74.0042516 552.555226,73.3894965 552.555226,72.5590378 C552.555226,71.6990198 552.368588,70.9895948 551.998515,70.5581877 C551.381727,69.789644 550.116512,69.4201518 548.142792,69.4201518 L548.142792,69.4201518 Z M679.131774,69.3591956 L666.391506,69.3591956 L666.391506,73.2662259 L679.285971,73.2662259 C681.043415,73.2662259 681.846441,73.020963 682.216914,72.3738523 C682.43319,72.0367157 682.462828,71.6672235 682.462828,71.3600457 C682.462828,70.958198 682.371111,70.6506207 682.184472,70.3753989 C681.630165,69.5744997 680.672942,69.3591956 679.131774,69.3591956 L679.131774,69.3591956 Z M577.301024,2.13162821e-14 L583.055172,4.0712047 L588.462076,8.66289407 L585.834321,10.8698609 L574.155007,9.16939796 L573.799754,15.2857918 L587.150001,25.3807178 L588.033128,33.3633468 L582.651056,42.5654997 L572.839327,48.2836409 L551.663888,48.4661901 L553.367663,45.9975828 L563.842239,44.108579 L563.719682,44.0015261 L561.726737,35.8663068 L564.545537,30.1170084 L563.462153,29.5921298 L560.508782,35.7260995 L562.150078,42.5694942 L552.77771,34.1019317 L549.085796,36.4718746 L542.6672,33.3825204 L538.210709,32.0783129 C537.754527,32.5109183 537.197415,32.823289 536.587837,32.9794744 C535.902161,32.8129033 535.277363,32.4673782 534.77312,31.975654 C534.358368,31.5428266 534.089817,30.9938527 534.000942,30.4058827 L533.976102,30.1837167 L533.964487,28.8515476 L534.199187,28.8495504 L534.199187,28.848352 L538.746593,28.8092058 L538.746593,28.8104042 L539.12027,28.8072086 L539.127079,29.5569781 L548.213482,30.6786365 L551.54053,26.7504353 L545.710686,27.3452179 L540.878516,24.8198886 L542.156147,20.3104861 L547.669187,15.9077371 L550.274113,11.6863388 L552.413245,17.0182109 L563.488186,20.7386976 L570.870012,24.1591966 L576.406282,29.9500379 L573.737274,38.0225434 L574.878731,38.3984268 L577.769222,29.6440584 L571.575313,23.1769466 L563.856657,19.589477 L561.09473,10.4092939 L567.386765,1.35573673 L577.301024,2.13162821e-14 Z M537.649793,24.3089108 L538.178067,25.0594793 C537.586111,25.0886392 537.037411,25.3766434 536.67615,25.8463978 C538.107177,25.9067149 539.345959,26.6025585 539.357974,27.9778684 C539.350765,28.0913125 539.251839,28.1783928 539.138093,28.1712027 L539.138093,28.1712027 L533.652288,28.2183379 C533.538944,28.2275252 533.438015,28.1420427 533.428803,28.0289981 C533.416788,26.6185366 534.535416,25.9135055 535.99488,25.8519901 C536.26162,25.1002233 536.878408,24.5258127 537.649793,24.3089108 L537.649793,24.3089108 Z M588.565608,17.6297304 C590.337471,17.6297304 591.598681,18.9175605 591.598681,20.6847318 C591.598681,22.451903 590.337471,23.7549122 588.565608,23.7549122 C586.778927,23.7549122 585.517716,22.451903 585.517716,20.6847318 C585.517716,18.9175605 586.778927,17.6297304 588.565608,17.6297304 Z M588.565608,18.2137278 C587.094129,18.2137278 586.16294,19.2323279 586.16294,20.6847318 C586.16294,22.1375351 587.094129,23.1557357 588.565608,23.1557357 C590.022268,23.1557357 590.983496,22.1375351 590.983496,20.6847318 C590.983496,19.2323279 590.022268,18.2137278 588.565608,18.2137278 Z M588.790696,19.0521755 C589.466759,19.0521755 589.917334,19.4416402 589.917334,20.0555964 C589.917334,20.5349376 589.646989,20.8796638 589.211633,21.0138794 L590.052307,22.2573704 L589.106699,22.2721501 L588.385378,21.0741965 L588.130252,21.0741965 L588.130252,22.2721501 L587.349255,22.2721501 L587.349255,19.0521755 L588.790696,19.0521755 Z M547.135706,19.5583198 C546.508104,19.5639122 546.004261,20.0780056 546.009868,20.7035459 C546.015475,21.3290862 546.52813,21.8315956 547.155331,21.8260032 C547.782532,21.8208104 548.286375,21.3095131 548.281168,20.6839728 C548.275561,20.0584325 547.762906,19.5527275 547.135706,19.5583198 Z M588.746239,19.7560082 L588.130252,19.7560082 L588.130252,20.429882 L588.746239,20.429882 C588.956508,20.429882 589.136337,20.3252258 589.136337,20.0855552 C589.136337,19.8462841 588.956508,19.7560082 588.746239,19.7560082 Z" id="Combined-Shape"></path>
            </g>
        </g>
    </g>
</svg>