<?xml version="1.0" encoding="UTF-8"?>
<svg width="59px" height="49px" viewBox="0 0 59 49" version="1.1" xmlns="http://www.w3.org/2000/svg" xmlns:xlink="http://www.w3.org/1999/xlink">
    <title>Combined Shape</title>
    <g id="Page-1" stroke="none" stroke-width="1" fill="none" fill-rule="evenodd">
        <g id="Content-page" transform="translate(-811.000000, -3763.000000)" fill="#FEFEFE">
            <g id="Group-29" transform="translate(0.000000, 3683.000000)">
                <path d="M854.872317,80 L860.626465,84.0712047 L866.033369,88.6628941 L863.405614,90.8698609 L851.7263,89.169398 L851.371046,95.2857918 L864.721294,105.380718 L865.604421,113.363347 L860.222349,122.5655 L850.41062,128.283641 L829.235181,128.46619 L830.938956,125.997583 L841.413532,124.108579 L841.290975,124.001526 L839.29803,115.866307 L842.11683,110.117008 L841.033446,109.59213 L838.080075,115.7261 L839.721371,122.569494 L830.349003,114.101932 L826.657089,116.471875 L820.238493,113.38252 L815.782002,112.078313 C815.32582,112.510918 814.768708,112.823289 814.15913,112.979474 C813.473454,112.812903 812.848656,112.467378 812.344412,111.975654 C811.929661,111.542827 811.66111,110.993853 811.572235,110.405883 L811.547395,110.183717 L811.53578,108.851548 L811.77048,108.84955 L811.77048,108.848352 L816.317886,108.809206 L816.317886,108.810404 L816.691563,108.807209 L816.698372,109.556978 L825.784775,110.678637 L829.111823,106.750435 L823.281979,107.345218 L818.449809,104.819889 L819.72744,100.310486 L825.24048,95.9077371 L827.845406,91.6863388 L829.984538,97.0182109 L841.059479,100.738698 L848.441305,104.159197 L853.977575,109.950038 L851.308567,118.022543 L852.450024,118.398427 L855.340515,109.644058 L849.146606,103.176947 L841.42795,99.589477 L838.666023,90.4092939 L844.958058,81.3557367 L854.872317,80 Z M815.221086,104.308911 L815.74936,105.059479 C815.157404,105.088639 814.608704,105.376643 814.247442,105.846398 C815.67847,105.906715 816.917252,106.602559 816.929267,107.977868 C816.922058,108.091312 816.823131,108.178393 816.709386,108.171203 L816.709386,108.171203 L811.223581,108.218338 C811.110237,108.227525 811.009308,108.142043 811.000096,108.028998 C810.988081,106.618537 812.106709,105.913506 813.566173,105.85199 C813.832913,105.100223 814.449701,104.525813 815.221086,104.308911 L815.221086,104.308911 Z M866.136901,97.6297304 C867.908764,97.6297304 869.169974,98.9175605 869.169974,100.684732 C869.169974,102.451903 867.908764,103.754912 866.136901,103.754912 C864.35022,103.754912 863.089009,102.451903 863.089009,100.684732 C863.089009,98.9175605 864.35022,97.6297304 866.136901,97.6297304 Z M866.136901,98.2137278 C864.665422,98.2137278 863.734233,99.2323279 863.734233,100.684732 C863.734233,102.137535 864.665422,103.155736 866.136901,103.155736 C867.593561,103.155736 868.554789,102.137535 868.554789,100.684732 C868.554789,99.2323279 867.593561,98.2137278 866.136901,98.2137278 Z M866.361989,99.0521755 C867.038052,99.0521755 867.488627,99.4416402 867.488627,100.055596 C867.488627,100.534938 867.218282,100.879664 866.782926,101.013879 L867.6236,102.25737 L866.677992,102.27215 L865.956671,101.074196 L865.701545,101.074196 L865.701545,102.27215 L864.920548,102.27215 L864.920548,99.0521755 L866.361989,99.0521755 Z M824.706999,99.5583198 C824.079397,99.5639122 823.575554,100.078006 823.581161,100.703546 C823.586768,101.329086 824.099423,101.831596 824.726624,101.826003 C825.353824,101.82081 825.857668,101.309513 825.852461,100.683973 C825.846854,100.058433 825.334199,99.5527275 824.706999,99.5583198 Z M866.317532,99.7560082 L865.701545,99.7560082 L865.701545,100.429882 L866.317532,100.429882 C866.5278,100.429882 866.70763,100.325226 866.70763,100.085555 C866.70763,99.8462841 866.5278,99.7560082 866.317532,99.7560082 Z" id="Combined-Shape"></path>
            </g>
        </g>
    </g>
</svg>