<?xml version="1.0" encoding="UTF-8"?>
<svg width="9px" height="13px" viewBox="0 0 9 13" version="1.1" xmlns="http://www.w3.org/2000/svg" xmlns:xlink="http://www.w3.org/1999/xlink">
    <title>Combined Shape</title>
    <g id="Page-1" stroke="none" stroke-width="1" fill="none" fill-rule="evenodd">
        <g id="Homepage" transform="translate(-140.000000, -5544.000000)" fill="#6A9173">
            <g id="Group-28" transform="translate(0.000000, 5213.900000)">
                <g id="Group-20" transform="translate(139.999958, 266.000000)">
                    <g id="Group-19" transform="translate(0.000000, 64.999973)">
                        <path d="M8.66361918,5.42299291 C8.83613289,5.43457994 8.98758794,5.31418145 9.00013996,5.15569229 C9.00125515,3.231847 7.13079927,2.24122316 4.95952521,2.13693996 C5.51458146,1.48487028 6.35134968,1.08971285 7.25031766,1.05721592 L6.45901385,0 C5.28516751,0.292605615 4.34087458,1.08744872 3.92541916,2.13520857 C1.709378,2.20100154 0.00167353643,3.17151457 0,5.14450482 C0.0124120619,5.3028608 0.164424954,5.42376397 0.336520284,5.41247137 L8.66361918,5.42299291 Z M8.07467382,6.14098876 L8.07467382,6.13925737 L4.52440574,6.11009003 L0.974277125,6.13925737 L0.974277125,6.14098876 L0.625484241,6.14378563 L0.642637989,8.03380214 C0.715297363,8.98580257 1.13382093,9.88519525 1.82736232,10.5758883 C2.57682772,11.273507 3.50536151,11.7637579 4.52440574,12.0000266 C5.54358943,11.7637579 6.47212322,11.273507 7.22158862,10.5758883 C7.91513001,9.88519525 8.33351412,8.98580257 8.40617349,8.03380214 L8.4234667,6.14378563 L8.07467382,6.14098876 Z" id="Combined-Shape"></path>
                    </g>
                </g>
            </g>
        </g>
    </g>
</svg>
