<?xml version="1.0" encoding="UTF-8"?>
<svg width="203px" height="146px" viewBox="0 0 203 146" version="1.1" xmlns="http://www.w3.org/2000/svg" xmlns:xlink="http://www.w3.org/1999/xlink">
    <title>Shape</title>
    <g id="Page-1" stroke="none" stroke-width="1" fill="none" fill-rule="evenodd">
        <g id="Homepage" transform="translate(-860.000000, -4738.000000)" fill="#E6E6E6" fill-rule="nonzero">
            <path d="M909.714286,4796.18053 C911.92381,4786.03422 916.342857,4777.82494 922.971429,4771.55267 C929.6,4765.28041 937.609524,4759.8383 947,4755.22634 L942.028571,4738.9 C925.088889,4740.37583 910.35873,4745.54122 897.838095,4754.39618 C885.31746,4763.25115 875.880952,4774.31985 869.528571,4787.60229 C863.17619,4800.88473 860,4814.35165 860,4828.00305 C860,4843.86819 863.95873,4857.15064 871.87619,4867.85038 C879.793651,4878.55013 890.933333,4883.9 905.295238,4883.9 C918.184127,4883.9 928.81746,4879.1958 937.195238,4869.7874 C945.573016,4860.37901 949.761905,4849.21807 949.761905,4836.30458 C949.761905,4824.68244 945.987302,4815.08957 938.438095,4807.52595 C930.888889,4799.96234 921.314286,4796.18053 909.714286,4796.18053 Z M1022.95238,4796.18053 C1025.1619,4786.03422 1029.58095,4777.82494 1036.20952,4771.55267 C1042.8381,4765.28041 1050.84762,4759.8383 1060.2381,4755.22634 L1055.26667,4738.9 C1038.32698,4740.37583 1023.59683,4745.54122 1011.07619,4754.39618 C998.555556,4763.25115 989.119048,4774.31985 982.766667,4787.60229 C976.414286,4800.88473 973.238095,4814.35165 973.238095,4828.00305 C973.238095,4843.86819 977.196825,4857.15064 985.114286,4867.85038 C993.031746,4878.55013 1004.17143,4883.9 1018.53333,4883.9 C1031.42222,4883.9 1042.05556,4879.1958 1050.43333,4869.7874 C1058.81111,4860.37901 1063,4849.21807 1063,4836.30458 C1063,4824.68244 1059.2254,4815.08957 1051.67619,4807.52595 C1044.12698,4799.96234 1034.55238,4796.18053 1022.95238,4796.18053 Z" id="Shape"></path>
        </g>
    </g>
</svg>