<svg xmlns="http://www.w3.org/2000/svg" viewBox="0 0 649.17 293.42"><defs><style>.cls-1{fill:#15382e;}</style></defs><g id="Layer_2" data-name="Layer 2"><g id="Beeldmerk"><path class="cls-1" d="M63.54,182.26c-2.46-.15-14.17-1-21.1-1.46-15-1.08-17.56-1.7-17.56-4.16,0-2.92,3.77-4,17.79-4,9.62,0,15.4,1.61,17.71,3.69,1.16,1.08,1.55,1.62,1.69,2.54l25-.07A21.51,21.51,0,0,0,84,171.71c-4.77-7.09-16.18-14-40.59-14-27.8,0-42.83,8.85-42.83,19.86,0,9.25,6.78,16.18,32.51,17.56,3.93.24,11.86.62,17.56,1,12.86.84,15,1.61,15,4.39s-2.85,4.38-18.25,4.38c-11.1,0-18.1-1.46-20.49-3.69a8,8,0,0,1-2-2.93H0A16.86,16.86,0,0,0,2,204c5.09,8.7,16.71,15.79,43.21,15.79q44.48,0,44.44-20.41C89.65,189.42,82.56,183.57,63.54,182.26Z"/><path class="cls-1" d="M180.85,190.5c0,7.71-7.39,12.71-20.48,12.71-13.64,0-20.88-4.93-20.88-12.71V158.69h-22.8v31c0,20.8,17.26,30,42.37,30,27.26,0,44.28-8.93,44.28-27.34V158.69H180.85Z"/><path class="cls-1" d="M311.49,163.93c-4.54-3.47-11.86-5.24-21.1-5.24H234.24v60.15h22.57V203.9h34c10.33,0,18.18-2.46,23-7.93,3.16-3.46,5-8.4,5-14.63C318.81,173.1,316,167.4,311.49,163.93Zm-16.64,22.49c-1.54,2.16-4.77,3-9.86,3H256.73V173.79H285c4.93,0,8.09.92,9.63,2.85a7.79,7.79,0,0,1,1.39,5A8.41,8.41,0,0,1,294.85,186.42Z"/><path class="cls-1" d="M421.79,163.93c-4.54-3.47-11.86-5.24-21.1-5.24H344.54v60.15H367.1V203.9h34c10.32,0,18.18-2.46,23-7.93,3.16-3.46,5-8.4,5-14.63C429.1,173.1,426.33,167.4,421.79,163.93Zm-16.64,22.49c-1.54,2.16-4.77,3-9.86,3H367V173.79h28.26c4.93,0,8.09.92,9.63,2.85a7.79,7.79,0,0,1,1.39,5A8.41,8.41,0,0,1,405.15,186.42Z"/><polygon class="cls-1" points="529.86 203.06 477.1 203.06 477.1 196.28 527.86 196.28 527.86 181.26 477.1 181.26 477.1 174.56 529.17 174.56 529.17 158.7 454.84 158.7 454.84 218.85 529.86 218.85 529.86 203.06"/><path class="cls-1" d="M627.07,193.89a17.24,17.24,0,0,0,11.55-6.16c2.16-2.69,3.46-6.93,3.46-11.4,0-5.23-1.54-8.93-4.62-11.71-4.15-3.62-11.4-5.92-22.25-5.92H557.67v60.15h22.57V196.74h24.87l19.18,22.11h24.88Zm-7.32-12.71c-.93,1.62-2.93,2.24-7.32,2.24H580.24v-9.78h31.81c3.84,0,6.23.54,7.62,2.54a4.22,4.22,0,0,1,.69,2.46A4.55,4.55,0,0,1,619.75,181.18Z"/><path class="cls-1" d="M110.58,261.65H101.8v11.11h8.1v4.46h-8.1v15.84H97.17V257.15h13.41Z"/><path class="cls-1" d="M133.57,256.92c3.33,0,5.36,1.17,6.57,3.42,1.58,3,1.71,7.79,1.71,14.54,0,7.06-.22,12-1.71,15-1.17,2.39-3.15,3.56-6.57,3.56s-5.35-1.17-6.52-3.51c-1.49-3-1.71-7.88-1.71-14.9,0-6.75.13-11.7,1.75-14.71C128.26,258.09,130.2,256.92,133.57,256.92Zm.05,32.18a2.46,2.46,0,0,0,2.56-1.49c.81-1.8.9-5.49.9-12.55,0-6.84.09-10.67-.9-12.47a2.65,2.65,0,0,0-2.56-1.26,2.48,2.48,0,0,0-2.43,1.31c-1,1.84-1,5.67-1,12.55s.14,10.67,1,12.42A2.47,2.47,0,0,0,133.62,289.1Z"/><path class="cls-1" d="M165.57,256.92c3.33,0,5.35,1.17,6.57,3.42,1.57,3,1.71,7.79,1.71,14.54,0,7.06-.23,12-1.71,15-1.17,2.39-3.15,3.56-6.57,3.56s-5.36-1.17-6.53-3.51c-1.48-3-1.71-7.88-1.71-14.9,0-6.75.14-11.7,1.76-14.71C160.26,258.09,162.19,256.92,165.57,256.92Zm0,32.18a2.48,2.48,0,0,0,2.57-1.49c.81-1.8.9-5.49.9-12.55,0-6.84.09-10.67-.9-12.47a2.68,2.68,0,0,0-2.57-1.26,2.49,2.49,0,0,0-2.43,1.31c-1,1.84-1,5.67-1,12.55s.13,10.67,1,12.42A2.45,2.45,0,0,0,165.61,289.1Z"/><path class="cls-1" d="M204.09,289.91c-1,1.75-2.52,3.15-6.39,3.15H190V257.15h7.65c3.51,0,5.49,1.17,6.61,3.55.95,1.94,1.17,9,1.17,13.64C205.39,281.63,205.3,287.66,204.09,289.91Zm-3.83-2.79c.54-2.25.41-6.53.41-12.78,0-2-.18-9.18-.45-10.49a2.69,2.69,0,0,0-2.79-2.47h-2.84V289.1h2.88A2.55,2.55,0,0,0,200.26,287.12Z"/><path class="cls-1" d="M245.8,284.42l-1.17,8.64H240l5.9-35.91h6.39l5.17,35.91h-4.72l-1-8.64Zm5.27-4.14s-1.62-11.7-1.71-12.51c-.14-1.13-.5-5.58-.5-5.58s-.31,4.45-.45,5.58c-.09.81-2,12.51-2,12.51Z"/><path class="cls-1" d="M287.34,285c0,5.45-2.84,8.42-7.79,8.42-4.72,0-7.33-2.07-7.65-5.63-.09-.22-.13-3.6-.13-4.59h4.54c0,.81.05,3.33.09,3.47.27,1.84,1.35,2.52,3.11,2.52,2.07,0,3-1.26,3-4,0-2.88-.72-4.59-3.6-7.65-.63-.68-1.8-1.94-2.74-3-2.88-3.2-4.55-5.67-4.55-10,0-4.91,2.93-7.74,7.79-7.74s7,2.88,7.42,6.66c.14,1.44.18,3.15.18,3.78h-4.59c0-.81-.09-3-.09-3,0-1.93-1-3-3-3-2.25,0-3,1-3,3.46,0,2.75,1.76,4.64,3.69,6.75.77.81,1.8,2,2.79,3.06C285.85,277.8,287.34,280.28,287.34,285Z"/><path class="cls-1" d="M327.48,284.42l-1.17,8.64h-4.68l5.89-35.91h6.39l5.18,35.91h-4.73l-1-8.64Zm5.26-4.14s-1.62-11.7-1.71-12.51c-.13-1.13-.49-5.58-.49-5.58s-.32,4.45-.45,5.58c-.09.81-2,12.51-2,12.51Z"/><path class="cls-1" d="M389,285c0,5.45-2.83,8.42-7.78,8.42-4.73,0-7.34-2.07-7.65-5.63-.09-.22-.14-3.6-.14-4.59H378c0,.81,0,3.33.09,3.47.27,1.84,1.35,2.52,3.1,2.52,2.07,0,3-1.26,3-4,0-2.88-.72-4.59-3.6-7.65l-2.75-3c-2.88-3.2-4.54-5.67-4.54-10,0-4.91,2.92-7.74,7.78-7.74s7,2.88,7.43,6.66c.13,1.44.18,3.15.18,3.78h-4.59c0-.81-.09-3-.09-3-.05-1.93-1-3-3-3-2.25,0-3,1-3,3.46,0,2.75,1.75,4.64,3.69,6.75.76.81,1.8,2,2.79,3.06C387.51,277.8,389,280.28,389,285Z"/><path class="cls-1" d="M418.2,293.06H404.74V257.15h13.37v4.5h-8.73v11.11h8.05v4.46h-8.05v11.34h8.82Z"/><path class="cls-1" d="M448.8,267.18a17.74,17.74,0,0,1-.72,6,4.52,4.52,0,0,1-2.48,2.7l4.23,17.15H445l-3.64-15.84h-3v15.84h-4.55V257.15h8.64a5.33,5.33,0,0,1,5.49,3.69A19,19,0,0,1,448.8,267.18Zm-4.73.54a34.9,34.9,0,0,0-.22-4.05,2.19,2.19,0,0,0-2.21-2.07H438.4V273c.05,0,3.2,0,3.47,0a1.91,1.91,0,0,0,1.71-1.26A15,15,0,0,0,444.07,267.72Z"/><path class="cls-1" d="M480.88,257.15l-6.16,35.91h-5.45l-5.94-35.91h4.73l4.05,27.09,4.09-27.09Z"/><path class="cls-1" d="M501,293.06h-4.86V257.15H501Z"/><path class="cls-1" d="M533.35,280.68a48.67,48.67,0,0,1-.36,6.62c-.54,3.64-3.28,6.12-7.6,6.12s-6.57-2.12-7.38-5.18-1-9.27-1-13.32a62.22,62.22,0,0,1,.76-12.1c.77-4,3.47-5.9,7.88-5.9s6.79,2.48,7.33,6.75a39.9,39.9,0,0,1,.32,6h-4.64a31.88,31.88,0,0,0-.45-6.08,2.47,2.47,0,0,0-2.74-2.07,2.78,2.78,0,0,0-3,2.3c-.58,2.92-.54,8.1-.54,11.07a90.94,90.94,0,0,0,.5,11.34c.36,2.16,1.66,2.83,3.06,2.83s2.74-.67,3-3c.23-2,.27-4.5.27-5.4Z"/><path class="cls-1" d="M562.6,293.06H549.15V257.15h13.36v4.5h-8.73v11.11h8.06v4.46h-8.06v11.34h8.82Z"/><path class="cls-1" d="M378.31,51.78a7.59,7.59,0,1,1,15.18,0,7.59,7.59,0,1,1-15.18,0Zm1.61,0c0,3.64,2.33,6.19,6,6.19a5.81,5.81,0,0,0,6-6.19,5.81,5.81,0,0,0-6-6.18C382.25,45.6,379.92,48.15,379.92,51.78Zm7.61.83,2.1,3.11-2.36,0-1.8-3h-.64v3h-1.95V47.7h3.6a2.51,2.51,0,0,1,2.82,2.51A2.4,2.4,0,0,1,387.53,52.61Zm-2.7-3.15v1.69h1.54a.87.87,0,0,0,1-.87c0-.6-.45-.82-1-.82Z"/><path class="cls-1" d="M293.48,67l-8.31,9.83L262.48,74l0-1.87h-.93l-11.35.1h-.59l0,3.33a7.28,7.28,0,0,0,2,4.49,9.82,9.82,0,0,0,4.53,2.51,9.23,9.23,0,0,0,4.05-2.25l11.13,3.26,16,7.73,9.21-5.93L320,106.57l-4.1-17.13,7.37-15.36L326,75.4l-7,14.39,5,20.36.3.27L298,115.15l-4.26,6.18,52.87-.46,24.5-14.31,13.44-23-2.2-20L349.05,38.27,349.94,23l29.16,4.26,6.56-5.52-13.5-11.5L357.8,0,333,3.39,317.33,26.06l6.9,23,19.27,9L359,74.21l-7.21,21.92-2.85-.94L355.56,75l-13.82-14.5-18.43-8.56L295.65,42.6l-5.34-13.34-6.5,10.56L270,50.85l-3.19,11.28,12.07,6.33Zm-11-18a2.84,2.84,0,1,1-2.81,2.87A2.85,2.85,0,0,1,282.48,49Z"/><path class="cls-1" d="M262.51,70.52a.52.52,0,0,0,.55-.48c0-3.44-3.12-5.18-6.7-5.34a5.08,5.08,0,0,1,3.75-2l-1.32-1.87a6.16,6.16,0,0,0-4.13,3.86c-3.64.15-6.44,1.92-6.41,5.45a.52.52,0,0,0,.56.47Z"/></g></g></svg>