<?xml version="1.0" encoding="UTF-8"?>
<svg width="20px" height="20px" viewBox="0 0 20 20" version="1.1" xmlns="http://www.w3.org/2000/svg" xmlns:xlink="http://www.w3.org/1999/xlink">
    <title>Icon</title>
    <g id="Page-1" stroke="none" stroke-width="1" fill="none" fill-rule="evenodd">
        <g id="Content-page" transform="translate(-1513.000000, -45.000000)" fill="currentColor">
            <g id="Group-5" transform="translate(276.000000, 40.000000)">
                <g id="Group-6" transform="translate(1101.000000, 0.000000)">
                    <path d="M142.5,22 C143.328427,22 144,22.6715729 144,23.5 C144,24.3284271 143.328427,25 142.5,25 C141.671573,25 141,24.3284271 141,23.5 C141,22.6715729 141.671573,22 142.5,22 Z M151.5,22 C152.328427,22 153,22.6715729 153,23.5 C153,24.3284271 152.328427,25 151.5,25 C150.671573,25 150,24.3284271 150,23.5 C150,22.6715729 150.671573,22 151.5,22 Z M137,5 L139,5 C139.455604,5 139.848307,5.30684025 139.965057,5.73773928 L139.988372,5.84794282 L140.473304,9 L155,9 C155.599764,9 156.054923,9.52067883 155.995123,10.1003471 L155.976187,10.2169305 L154.324218,17.6507914 C154.032455,18.9637252 152.905892,19.91433 151.577931,19.9945094 L151.395657,20 L142.715838,20 C141.294353,20 140.07697,19.0043648 139.782653,17.6299072 L139.750723,17.4561716 L138.142081,7 L137,7 C136.447715,7 136,6.55228475 136,6 C136,5.48716416 136.38604,5.06449284 136.883379,5.00672773 L137,5 L139,5 L137,5 Z M153.753384,11 L140.780996,11 L141.727466,17.1520572 C141.796744,17.6023634 142.15973,17.9438425 142.603371,17.9937133 L142.715838,18 L151.395657,18 C151.825297,18 152.202097,17.7264627 152.340228,17.3284527 L152.371844,17.2169305 L153.753384,11 Z" id="Icon"></path>
                </g>
            </g>
        </g>
    </g>
</svg>
