<?xml version="1.0" encoding="UTF-8"?>
<svg width="20px" height="21px" viewBox="0 0 20 21" version="1.1" xmlns="http://www.w3.org/2000/svg" xmlns:xlink="http://www.w3.org/1999/xlink">
    <title>Shape</title>
    <g id="Page-1" stroke="none" stroke-width="1" fill="none" fill-rule="evenodd">
        <g id="Content-page" transform="translate(-1342.000000, -3331.000000)" fill="currentColor">
            <g id="Group-28" transform="translate(0.000000, 2872.000000)">
                <g id="Group-26" transform="translate(1220.000000, 450.100000)">
                    <g id="Group-23" transform="translate(112.000000, 0.000000)">
                        <path d="M10.5044685,15.4131131 L14.4026341,15.4131131 L14.4026341,28.9987194 L10.5044685,28.9987194 L10.5044685,15.4131131 Z M12.3541863,13.7137918 L12.3259643,13.7137918 C10.9148636,13.7137918 10,12.6752465 10,11.3600973 C10,10.0180561 10.9419097,9 12.3812324,9 C13.8193791,9 14.7036689,10.0154949 14.7318909,11.3562556 C14.7318909,12.6714048 13.8193791,13.7137918 12.3541863,13.7137918 L12.3541863,13.7137918 Z M30,29 L25.5797272,29 L25.5797272,21.9683698 C25.5797272,20.1281854 24.8882879,18.8732232 23.3678269,18.8732232 C22.2048448,18.8732232 21.5580903,19.7196824 21.2570555,20.537969 C21.1441675,20.8299398 21.1618062,21.2384428 21.1618062,21.6482264 L21.1618062,29 L16.7826905,29 C16.7826905,29 16.8391345,16.5451402 16.7826905,15.4131131 L21.1618062,15.4131131 L21.1618062,17.5452683 C21.420508,16.6130106 22.8198495,15.2824946 25.0529163,15.2824946 C27.8233772,15.2824946 30,17.2379306 30,21.4446152 L30,29 L30,29 Z" id="Shape"></path>
                    </g>
                </g>
            </g>
        </g>
    </g>
</svg>
