<?xml version="1.0" encoding="UTF-8"?>
<svg width="21px" height="19px" viewBox="0 0 21 19" version="1.1" xmlns="http://www.w3.org/2000/svg" xmlns:xlink="http://www.w3.org/1999/xlink">
    <title>Shape</title>
    <g id="Page-1" stroke="none" stroke-width="1" fill="none" fill-rule="evenodd">
        <g id="Content-page" transform="translate(-1230.000000, -3333.000000)" fill="currentColor">
            <g id="Group-28" transform="translate(0.000000, 2872.000000)">
                <g id="Group-21" transform="translate(1220.000000, 450.100000)">
                    <path d="M28.526149,13.8457316 C29.4160944,13.2841254 30.0989611,12.3936155 30.41944,11.3328037 C29.5861948,11.8541095 28.6654341,12.2311137 27.6830428,12.4352159 C26.899102,11.5512061 25.7786582,11 24.5386512,11 C22.1597112,11 20.231907,13.0345226 20.231907,15.5435505 C20.231907,15.8997544 20.2676528,16.2468583 20.3416094,16.578362 C16.762106,16.3885599 13.5881317,14.5815398 11.4618771,11.8307092 C11.0908611,12.5041167 10.8788519,13.2841254 10.8788519,14.1161346 C10.8788519,15.6917521 11.6393731,17.0827676 12.7955626,17.8991767 C12.0892763,17.8757764 11.4248987,17.6690741 10.8431062,17.3310703 L10.8431062,17.386971 C10.8431062,19.5891954 12.3271703,21.4261158 14.3005811,21.8421205 C13.9381933,21.9487217 13.558549,22.0020222 13.1641134,22.0020222 C12.8867758,22.0020222 12.6156013,21.9747219 12.3542877,21.9214213 C12.9015672,23.7258414 14.4928685,25.041456 16.3787639,25.0765564 C14.9033281,26.29597 13.0457827,27.021378 11.0279979,27.021378 C10.6804015,27.021378 10.3365029,27.0018778 10,26.9589773 C11.9068498,28.2472916 14.1711569,29 16.6043317,29 C24.5300229,29 28.8614193,22.0761231 28.8614193,16.0713563 C28.8614193,15.8737542 28.858954,15.677452 28.8503258,15.4837498 C29.6921993,14.8428427 30.4243705,14.0420338 31,13.1307237 C30.2271527,13.4921277 29.3963726,13.7365304 28.526149,13.8457316 Z" id="Shape"></path>
                </g>
            </g>
        </g>
    </g>
</svg>
