<?xml version="1.0" encoding="UTF-8"?>
<svg width="20px" height="20px" viewBox="0 0 20 20" version="1.1" xmlns="http://www.w3.org/2000/svg" xmlns:xlink="http://www.w3.org/1999/xlink">
    <title>Icon</title>
    <g id="Page-1" stroke="none" stroke-width="1" fill="none" fill-rule="evenodd">
        <g id="Content-page" transform="translate(-1463.000000, -45.000000)" fill="currentColor">
            <g id="Group-5" transform="translate(276.000000, 40.000000)">
                <g id="Group-6" transform="translate(1101.000000, 0.000000)">
                    <path d="M91,19 L101,19 C103.761424,19 106,21.2385763 106,24 C106,24.5522847 105.552285,25 105,25 C104.487164,25 104.064493,24.6139598 104.006728,24.1166211 L103.994907,23.8237272 C103.90704,22.3072462 102.692754,21.0929596 101.176273,21.0050927 L101,21 L91,21 C89.3431458,21 88,22.3431458 88,24 C88,24.5522847 87.5522847,25 87,25 C86.4477153,25 86,24.5522847 86,24 C86,21.3112453 88.1223067,19.1181819 90.7831104,19.0046195 L91,19 L101,19 L91,19 Z M96,5 C99.3137085,5 102,7.6862915 102,11 C102,14.3137085 99.3137085,17 96,17 C92.6862915,17 90,14.3137085 90,11 C90,7.6862915 92.6862915,5 96,5 Z M96,7 C93.790861,7 92,8.790861 92,11 C92,13.209139 93.790861,15 96,15 C98.209139,15 100,13.209139 100,11 C100,8.790861 98.209139,7 96,7 Z" id="Icon"></path>
                </g>
            </g>
        </g>
    </g>
</svg>
