<?xml version="1.0" encoding="UTF-8"?><svg xmlns="http://www.w3.org/2000/svg" xmlns:xlink="http://www.w3.org/1999/xlink"><symbol viewBox="0 0 20 20" id="cart" xmlns="http://www.w3.org/2000/svg"><path d="M6.5 17a1.5 1.5 0 110 3 1.5 1.5 0 010-3zm9 0a1.5 1.5 0 110 3 1.5 1.5 0 010-3zM1 0h2a1 1 0 01.965.738l.023.11L4.473 4H19a1 1 0 01.995 1.1l-.019.117-1.652 7.434a3 3 0 01-2.746 2.344l-.182.005h-8.68a3 3 0 01-2.933-2.37l-.032-.174L2.142 2H1A1 1 0 01.883.007L1 0h2-2zm16.753 6H4.781l.946 6.152a1 1 0 00.876.842l.113.006h8.68a1 1 0 00.944-.672l.032-.111L17.753 6z" fill="currentColor" fill-rule="evenodd"/></symbol><symbol viewBox="0 0 20 16" id="check" xmlns="http://www.w3.org/2000/svg"><path d="M7.91 13.496L1.707 7.293A1 1 0 10.293 8.707l7 7a1 1 0 001.493-.09l11-14A1 1 0 1018.214.383L7.91 13.496z" fill="currentColor" fill-rule="evenodd"/></symbol><symbol viewBox="0 0 10 18" id="chevron-left" xmlns="http://www.w3.org/2000/svg"><path d="M9 18a.997.997 0 01-.707-.293l-8-8a.999.999 0 010-1.414l8-8a.999.999 0 111.414 1.414L2.414 9l7.293 7.293A.999.999 0 019 18" fill="currentColor" fill-rule="evenodd"/></symbol><symbol viewBox="0 0 10 18" id="chevron-right" xmlns="http://www.w3.org/2000/svg"><path d="M1 18a.997.997 0 00.708-.293l8-8a.999.999 0 000-1.414l-8-8A.999.999 0 10.294 1.707L7.587 9 .294 16.293A.999.999 0 001 18" fill="currentColor" fill-rule="evenodd"/></symbol><symbol viewBox="0 0 11 24" id="facebook" xmlns="http://www.w3.org/2000/svg"><path d="M2.437 23.1V11.599H0V7.636h2.437v-2.38C2.437 2.023 3.813.1 7.723.1h3.255v3.964H8.944c-1.523 0-1.623.554-1.623 1.588l-.007 1.984H11l-.431 3.963H7.314V23.1H2.437z" fill="currentColor" fill-rule="evenodd"/></symbol><symbol fill="none" stroke="currentColor" stroke-width="2" stroke-linecap="round" stroke-linejoin="round" class="ffeather ffeather-heart" viewBox="0 0 24 24" id="heart" xmlns="http://www.w3.org/2000/svg"><path d="M20.84 4.61a5.5 5.5 0 00-7.78 0L12 5.67l-1.06-1.06a5.5 5.5 0 00-7.78 7.78l1.06 1.06L12 21.23l7.78-7.78 1.06-1.06a5.5 5.5 0 000-7.78z"/></symbol><symbol viewBox="0 0 24 24" id="instagram" xmlns="http://www.w3.org/2000/svg"><path d="M12 0C8.74 0 8.333.015 7.053.072 5.775.132 4.905.333 4.14.63c-.789.306-1.459.717-2.126 1.384S.935 3.35.63 4.14C.333 4.905.131 5.775.072 7.053.012 8.333 0 8.74 0 12s.015 3.667.072 4.947c.06 1.277.261 2.148.558 2.913a5.885 5.885 0 001.384 2.126A5.868 5.868 0 004.14 23.37c.766.296 1.636.499 2.913.558C8.333 23.988 8.74 24 12 24s3.667-.015 4.947-.072c1.277-.06 2.148-.262 2.913-.558a5.898 5.898 0 002.126-1.384 5.86 5.86 0 001.384-2.126c.296-.765.499-1.636.558-2.913.06-1.28.072-1.687.072-4.947s-.015-3.667-.072-4.947c-.06-1.277-.262-2.149-.558-2.913a5.89 5.89 0 00-1.384-2.126A5.847 5.847 0 0019.86.63c-.765-.297-1.636-.499-2.913-.558C15.667.012 15.26 0 12 0zm0 2.16c3.203 0 3.585.016 4.85.071 1.17.055 1.805.249 2.227.415.562.217.96.477 1.382.896.419.42.679.819.896 1.381.164.422.36 1.057.413 2.227.057 1.266.07 1.646.07 4.85s-.015 3.585-.074 4.85c-.061 1.17-.256 1.805-.421 2.227a3.81 3.81 0 01-.899 1.382 3.744 3.744 0 01-1.38.896c-.42.164-1.065.36-2.235.413-1.274.057-1.649.07-4.859.07-3.211 0-3.586-.015-4.859-.074-1.171-.061-1.816-.256-2.236-.421a3.716 3.716 0 01-1.379-.899 3.644 3.644 0 01-.9-1.38c-.165-.42-.359-1.065-.42-2.235-.045-1.26-.061-1.649-.061-4.844 0-3.196.016-3.586.061-4.861.061-1.17.255-1.814.42-2.234.21-.57.479-.96.9-1.381.419-.419.81-.689 1.379-.898.42-.166 1.051-.361 2.221-.421 1.275-.045 1.65-.06 4.859-.06l.045.03zm0 3.678a6.162 6.162 0 100 12.324 6.162 6.162 0 100-12.324zM12 16c-2.21 0-4-1.79-4-4s1.79-4 4-4 4 1.79 4 4-1.79 4-4 4zm7.846-10.405a1.441 1.441 0 01-2.88 0 1.44 1.44 0 012.88 0z"/></symbol><symbol viewBox="0 0 20 21" id="linkedin" xmlns="http://www.w3.org/2000/svg"><path d="M.504 6.513h3.899V20.1H.504V6.513zm1.85-1.7h-.028C.915 4.814 0 3.776 0 2.46 0 1.118.942.1 2.381.1c1.438 0 2.323 1.015 2.35 2.356 0 1.315-.912 2.358-2.377 2.358zM20 20.1h-4.42v-7.032c0-1.84-.692-3.095-2.212-3.095-1.163 0-1.81.847-2.11 1.665-.114.292-.096.7-.096 1.11V20.1h-4.38s.057-12.455 0-13.587h4.38v2.132c.259-.932 1.658-2.263 3.89-2.263 2.771 0 4.948 1.956 4.948 6.163V20.1z" fill="currentColor" fill-rule="evenodd"/></symbol><symbol fill="none" stroke="currentColor" stroke-width="2" stroke-linecap="round" stroke-linejoin="round" class="ifeather ifeather-log-out" viewBox="0 0 24 24" id="log-out" xmlns="http://www.w3.org/2000/svg"><path d="M9 21H5a2 2 0 01-2-2V5a2 2 0 012-2h4M16 17l5-5-5-5M21 12H9"/></symbol><symbol viewBox="0 0 24 24" fill="none" stroke="currentColor" stroke-width="2" stroke-linecap="round" stroke-linejoin="round" class="jfeather jfeather-menu" id="menu" xmlns="http://www.w3.org/2000/svg"><path d="M3 12h18M3 6h18M3 18h18"/></symbol><symbol viewBox="0 0 12 2" id="minus" xmlns="http://www.w3.org/2000/svg"><path d="M12 0v2H0V0z" fill="currentColor" fill-rule="evenodd"/></symbol><symbol viewBox="0 0 12 12" id="plus" xmlns="http://www.w3.org/2000/svg"><g fill="currentColor" fill-rule="evenodd"><path d="M12 5v2H0V5z"/><path d="M5 0h2v12H5z"/></g></symbol><symbol viewBox="0 0 59 49" id="squirrel" xmlns="http://www.w3.org/2000/svg"><path d="M43.872 0l5.754 4.071 5.407 4.592-2.627 2.207-11.68-1.7-.355 6.116 13.35 10.095.883 7.982-5.382 9.203-9.811 5.718-21.176.182 1.704-2.468 10.475-1.89-.123-.106-1.993-8.136 2.819-5.749-1.084-.525-2.953 6.134 1.641 6.843-9.372-8.467-3.692 2.37-6.419-3.09-4.456-1.304a3.693 3.693 0 01-1.623.901 3.92 3.92 0 01-1.815-1.003 2.894 2.894 0 01-.772-1.57l-.025-.222-.011-1.332.234-.002v-.002l4.548-.039v.001l.374-.003.006.75 9.087 1.122 3.327-3.929-5.83.595L7.45 24.82l1.277-4.51 5.513-4.402 2.605-4.222 2.14 5.332 11.074 3.72 7.382 3.421 5.537 5.791-2.67 8.073 1.142.375 2.89-8.754-6.193-6.467-7.719-3.588-2.762-9.18 6.292-9.053L43.872 0zM4.222 24.309l.527.75a2.02 2.02 0 00-1.502.787c1.431.06 2.67.757 2.682 2.132a.208.208 0 01-.22.193l-5.485.047A.208.208 0 010 28.03c-.012-1.41 1.107-2.115 2.566-2.177a2.459 2.459 0 011.655-1.543zm50.915-6.68c1.772 0 3.033 1.289 3.033 3.056 0 1.767-1.261 3.07-3.033 3.07-1.787 0-3.048-1.303-3.048-3.07s1.261-3.055 3.048-3.055zm0 .585c-1.472 0-2.403 1.018-2.403 2.47 0 1.454.931 2.472 2.403 2.472 1.457 0 2.418-1.018 2.418-2.471s-.961-2.471-2.418-2.471zm.225.838c.676 0 1.127.39 1.127 1.004 0 .479-.27.824-.706.958l.84 1.243-.945.015-.721-1.198h-.255v1.198h-.781v-3.22h1.441zm-41.655.506a1.134 1.134 0 10.02 2.268 1.134 1.134 0 10-.02-2.268zm41.61.198h-.615v.674h.616c.21 0 .39-.105.39-.344 0-.24-.18-.33-.39-.33z" fill="currentColor" fill-rule="evenodd"/></symbol><symbol fill="none" stroke="currentColor" stroke-width="2" stroke-linecap="round" stroke-linejoin="round" class="nfeather nfeather-trash-2" viewBox="0 0 24 24" id="trash-2" xmlns="http://www.w3.org/2000/svg"><path d="M3 6h18M19 6v14a2 2 0 01-2 2H7a2 2 0 01-2-2V6m3 0V4a2 2 0 012-2h4a2 2 0 012 2v2M10 11v6M14 11v6"/></symbol><symbol viewBox="0 0 6 4" id="triangle" xmlns="http://www.w3.org/2000/svg"><path d="M3 4L0 0h6z" fill="currentColor" fill-rule="evenodd"/></symbol><symbol viewBox="0 0 21 19" id="twitter" xmlns="http://www.w3.org/2000/svg"><path d="M18.526 2.946A4.51 4.51 0 0020.42.433a8.355 8.355 0 01-2.736 1.102A4.194 4.194 0 0014.539.1c-2.38 0-4.307 2.035-4.307 4.544 0 .356.036.703.11 1.034-3.58-.19-6.754-1.996-8.88-4.747a4.724 4.724 0 00-.583 2.285c0 1.576.76 2.967 1.917 3.783a4.154 4.154 0 01-1.953-.568v.056c0 2.202 1.484 4.04 3.458 4.455a4.01 4.01 0 01-1.137.16c-.277 0-.548-.027-.81-.08.548 1.804 2.139 3.12 4.025 3.155-1.476 1.219-3.333 1.944-5.351 1.944-.348 0-.691-.02-1.028-.062A11.747 11.747 0 006.604 18.1c7.926 0 12.257-6.924 12.257-12.929 0-.197-.002-.394-.01-.587A9.006 9.006 0 0021 2.23a8.257 8.257 0 01-2.474.715z" fill="currentColor" fill-rule="evenodd"/></symbol><symbol viewBox="0 0 20 20" id="user" xmlns="http://www.w3.org/2000/svg"><path d="M5 14h10a5 5 0 015 5 1 1 0 01-1.993.117l-.012-.293a3 3 0 00-2.819-2.819L15 16H5a3 3 0 00-3 3 1 1 0 01-2 0 5 5 0 014.783-4.995L5 14h10H5zm5-14a6 6 0 110 12 6 6 0 010-12zm0 2a4 4 0 100 8 4 4 0 000-8z" fill="currentColor" fill-rule="evenodd"/></symbol><symbol viewBox="0 0 24 24" fill="none" stroke="currentColor" stroke-width="2" stroke-linecap="round" stroke-linejoin="round" class="rfeather rfeather-x" id="x" xmlns="http://www.w3.org/2000/svg"><path d="M18 6L6 18M6 6l12 12"/></symbol><symbol viewBox="0 0 20 15" id="youtube" xmlns="http://www.w3.org/2000/svg"><path d="M20 10.664V3.536S20 .1 16.553.1H3.445S0 .1 0 3.536v7.128S0 14.1 3.445 14.1h13.108S20 14.1 20 10.664M13.883 7.11l-6.548 3.833V3.276l6.548 3.834" fill="currentColor" fill-rule="evenodd"/></symbol></svg>